<svg xmlns="http://www.w3.org/2000/svg" viewBox="0 0 768 768" role="img" aria-labelledby="title desc"><title id="title">Roshan Digital</title><desc id="desc">Green and gold Roshan Digital shield logo</desc><defs><linearGradient id="green" x1="0" y1="0" x2="1" y2="1"><stop stop-color="#19ed78"/><stop offset=".52" stop-color="#05a94d"/><stop offset="1" stop-color="#00552d"/></linearGradient><linearGradient id="gold" x1="0" y1="0" x2="1" y2="1"><stop stop-color="#fff1a6"/><stop offset=".45" stop-color="#e7bd4e"/><stop offset="1" stop-color="#8a5a13"/></linearGradient></defs><rect width="768" height="768" fill="#030504"/><path d="M384 42 583 126v190c0 171-82 292-199 357C267 608 185 487 185 316V126z" fill="#061c12" stroke="url(#gold)" stroke-width="12"/><path d="M384 68 558 141v171c0 145-67 251-174 314-107-63-174-169-174-314V141z" fill="none" stroke="#16cc63" stroke-opacity=".5" stroke-width="3"/><path d="M269 202h130c72 0 110 34 110 89 0 42-22 69-65 81l75 90h-76l-67-81h-38v81h-69zm69 57v67h58c29 0 43-12 43-34 0-22-14-33-43-33z" fill="url(#green)" stroke="#b6fbd0" stroke-opacity=".45" stroke-width="3"/><path d="M262 478c90-22 184-57 279-139l-17-9 67-36-18 73-18-12c-95 84-195 124-294 147z" fill="url(#gold)"/><path d="M312 544v-50h29v63zm54 25v-86h29v103zm55 18V450h29v137zm55-25V423h29v116z" fill="url(#green)"/><path d="M58 659h652" stroke="url(#gold)" stroke-width="2"/><text x="57" y="724" fill="url(#green)" font-family="Arial,sans-serif" font-size="61" font-weight="700" letter-spacing="5">ROSHAN</text><text x="430" y="724" fill="url(#gold)" font-family="Arial,sans-serif" font-size="57" font-weight="700" letter-spacing="1">DIGITAL</text></svg>
